<?xml version="1.0" encoding="UTF-8" standalone="no"?>
<!DOCTYPE svg PUBLIC "-//W3C//DTD SVG 1.1//EN" "http://www.w3.org/Graphics/SVG/1.1/DTD/svg11.dtd">
<svg width="100%" height="100%" viewBox="0 0 391 579" version="1.1" xmlns="http://www.w3.org/2000/svg" xmlns:xlink="http://www.w3.org/1999/xlink" xml:space="preserve" xmlns:serif="http://www.serif.com/" style="fill-rule:evenodd;clip-rule:evenodd;stroke-linejoin:round;stroke-miterlimit:2;">
    <g transform="matrix(0.1,0,0,-0.1,0,579)">
        <path d="M1044,5431C978,5401 951,5318 985,5246C995,5225 1024,5200 1071,5171C1226,5075 1328,4965 1400,4816C1439,4736 1484,4581 1471,4569C1468,4565 1393,4521 1305,4471C1217,4421 1137,4370 1128,4359C1111,4340 1110,4304 1110,3936L1110,3535L1058,3504C1029,3487 873,3397 711,3304C497,3181 414,3128 404,3108C383,3067 383,2242 405,2201C413,2184 445,2158 482,2137C517,2118 644,2045 765,1975C886,1905 1013,1832 1048,1813L1110,1778L1110,1377C1110,1011 1112,973 1128,953C1137,942 1264,864 1410,781C1707,612 1727,595 1848,417C1911,323 1915,320 1930,338C1938,349 1974,399 2010,451C2116,602 2138,620 2425,783C2568,865 2693,941 2703,952C2719,971 2720,1006 2720,1375L2720,1778L2783,1813C2817,1832 2944,1905 3065,1975C3186,2045 3313,2118 3348,2137C3385,2158 3417,2184 3425,2201C3447,2242 3447,3067 3426,3108C3416,3128 3333,3181 3119,3304C2957,3397 2801,3487 2773,3504L2720,3535L2720,3936C2720,4304 2719,4340 2703,4359C2693,4370 2613,4421 2525,4471C2437,4521 2362,4565 2359,4569C2346,4581 2391,4736 2430,4816C2502,4965 2604,5075 2759,5171C2806,5200 2835,5225 2845,5246C2879,5318 2852,5401 2786,5431C2728,5457 2714,5455 2614,5406C2356,5281 2185,5039 2152,4751L2145,4692L2040,4751C1982,4783 1926,4810 1915,4810C1904,4810 1848,4783 1790,4751L1685,4692L1678,4754C1667,4846 1624,4985 1583,5057C1495,5215 1375,5329 1216,5406C1116,5455 1102,5457 1044,5431ZM1344,3291C1689,3094 1787,3036 1805,3019C1824,3000 1825,2984 1828,2682C1830,2473 1828,2352 1820,2328C1809,2288 1809,2288 1565,2148C1494,2106 1387,2045 1328,2011C1270,1978 1210,1950 1196,1950C1172,1950 1031,2027 715,2214C642,2257 590,2295 583,2310C573,2329 570,2414 572,2666C575,3041 570,3018 660,3066C685,3079 809,3150 935,3224C1080,3309 1176,3359 1194,3359C1213,3360 1266,3336 1344,3291ZM2932,3204C3082,3118 3217,3035 3233,3019L3260,2990L3260,2662C3260,2421 3256,2328 3247,2310C3240,2295 3188,2258 3115,2214C2799,2027 2658,1950 2634,1950C2620,1950 2560,1978 2502,2011C1992,2304 2024,2285 2011,2322C1994,2371 1996,2951 2014,2993C2025,3021 2059,3044 2241,3150C2359,3218 2489,3293 2530,3317C2571,3340 2617,3360 2631,3360C2648,3360 2766,3299 2932,3204ZM2224,1959C2379,1871 2513,1789 2523,1778C2537,1761 2540,1738 2540,1650C2540,1545 2539,1541 2514,1521C2499,1509 2477,1500 2465,1500C2452,1500 2351,1561 2239,1635C1992,1798 1939,1830 1912,1830C1900,1830 1782,1758 1649,1669C1516,1581 1398,1505 1386,1500C1359,1490 1306,1511 1296,1535C1284,1567 1289,1755 1303,1774C1325,1805 1882,2120 1914,2120C1934,2120 2035,2068 2224,1959ZM2232,1424C2388,1322 2521,1231 2528,1222C2541,1205 2545,1083 2532,1064C2518,1043 2423,990 2398,990C2385,990 2338,1014 2294,1044C2251,1073 2155,1138 2081,1189C1982,1256 1938,1280 1915,1280C1892,1280 1831,1245 1666,1135C1546,1055 1439,990 1428,990C1406,990 1348,1021 1313,1053C1294,1070 1290,1084 1290,1136C1290,1180 1295,1203 1308,1218C1323,1237 1752,1528 1860,1593C1888,1610 1913,1618 1927,1615C1940,1612 2077,1526 2232,1424Z" style="fill:rgb(255,170,0);fill-rule:nonzero;"/>
    </g>
</svg>
